<svg version="1.2" xmlns="http://www.w3.org/2000/svg" viewBox="0 0 512 512" width="512" height="512">
	<title>phone-call-svgrepo-com-svg</title>
	<style>
		.s0 { fill: #b0dacc } 
		.s1 { fill: #211e48 } 
	</style>
	<path id="Layer" class="s0" d="m412.2 337.7l36.7 36.6c19.4 19.5 19.3 51-0.3 70.3l-10.3 10.1c-8.5 6.6-18.4 12.3-28.8 16.4-9.7 3.7-19.9 6.9-29.8 8-4.6 0.6-109.8 9.7-241.3-121.7-95-95.1-130.1-165.2-120.8-241.9 1.1-9.5 3.5-19.1 7.3-29.1 4.1-10.5 9.7-20.3 16.3-28.8l10.2-10.3c19.2-19.6 50.7-19.7 70.1-0.3l38.1 38.1c19.3 19.3 19.3 50.6 0 69.9l-2.5 2.5-24.4 23c1.2 2.1 1.8 3.7 3.1 6 12.4 22.3 42.9 66.4 75 98.6 32.2 32.1 76.2 62.4 98.5 74.8 2.4 1.4 4.8 2.6 7 3.8l26-26c19.3-19.3 50.6-19.3 69.9 0z"/>
	<g id="Layer">
		<path id="Layer" fill-rule="evenodd" class="s1" d="m372 495.6q0 0 0 0c-27.7 0-127.3-9.2-245-126.8-99-99-135.3-173-125.4-255.1 1.2-10.8 3.9-21.6 8.2-33q0-0.1 0.1-0.2c4.6-11.8 11-23.1 18.6-32.8q0.6-0.8 1.2-1.4l10.1-10.3c12.5-12.6 29.1-19.6 46.8-19.6 17.5 0 34 6.8 46.4 19.2l38 38.1c12.4 12.4 19.2 28.8 19.2 46.4 0 17.5-6.8 33.9-19.2 46.3l-2.5 2.6q-0.2 0.1-0.3 0.3l-15.4 14.4c12.6 21.3 39.8 60.3 69.5 89.9 30.1 30.2 70.1 57.9 91.2 70.1l17.4-17.4c12.4-12.4 28.9-19.2 46.4-19.2 17.5 0 34 6.8 46.3 19.2l36.7 36.6c12.4 12.5 19.3 29.1 19.2 46.7-0.1 17.6-7 34.1-19.6 46.5l-10.3 10.1q-0.7 0.6-1.4 1.2c-9.7 7.6-21.1 14.1-32.8 18.7-12.7 4.9-23.8 7.9-33.8 9.1-1 0.1-4.2 0.4-9.6 0.4zm-332.1-403.4c-3.3 8.8-5.4 17-6.2 25.1q-0.1 0.1-0.1 0.2c-8.6 71.1 25.1 137.3 116.2 228.5 109 108.8 197.7 117.3 222.2 117.3q0 0 0 0c3.9 0 5.9-0.2 5.9-0.2 7.2-0.8 15.7-3.2 25.8-7.1 8.5-3.3 16.8-8 23.9-13.5l9.7-9.5c6.3-6.2 9.9-14.6 9.9-23.6 0-8.9-3.4-17.3-9.7-23.6l-36.7-36.7c-6.3-6.3-14.6-9.7-23.5-9.7-8.9 0-17.3 3.4-23.6 9.7l-25.9 26c-5.1 5.1-12.9 6.2-19.2 2.8q-1.3-0.7-2.6-1.4-2.3-1.2-4.6-2.5c-22-12.2-67.4-43-102-77.5-34.5-34.5-65.9-80.9-77.7-102.1-0.9-1.7-1.6-3.1-2.1-4.2-0.3-0.6-0.6-1.2-1-1.9-3.6-6.5-2.3-14.6 3.1-19.6l24.2-22.7 2.3-2.4c6.3-6.3 9.8-14.6 9.8-23.5 0-8.9-3.5-17.3-9.8-23.6l-38.1-38.1c-6.3-6.2-14.6-9.7-23.5-9.7-9 0-17.4 3.5-23.7 9.9l-9.5 9.7c-5.4 7-10.1 15.3-13.5 23.9z"/>
	</g>
	<g id="Layer">
	</g>
	<g id="Layer">
	</g>
	<g id="Layer">
	</g>
	<g id="Layer">
	</g>
	<g id="Layer">
	</g>
	<g id="Layer">
	</g>
	<g id="Layer">
	</g>
	<g id="Layer">
	</g>
	<g id="Layer">
	</g>
	<g id="Layer">
	</g>
	<g id="Layer">
	</g>
	<g id="Layer">
	</g>
	<g id="Layer">
	</g>
	<g id="Layer">
	</g>
	<g id="Layer">
	</g>
</svg>